User Type,Username,Date,Text
,andy_sera,2010-05-06T06:20Z," General
      Complete name : Kites HD Trailer.mov
      Format : MPEG-4
      Format profile : QuickTime
      Codec ID : qt  
      File size : 47.1 MiB
      Duration : 2mn 22s
      Overall bit rate : 2 762 Kbps
      Movie name : ""Kites"" Trailer
      Performer : Yahoo! Broadcast
      Encoded date : UTC 2010-05-04 22:55:27
      Tagged date : UTC 2010-05-04 22:55:33
      Writing library : Apple QuickTime
      Copyright :  2010, Reliance/Big Pictures
      com.apple.quicktime.author : Yahoo! Broadcast
      com.apple.quicktime.player.movie.audio.mute : (Binary)
   Video #2
      ID : 2
      Format : AVC
      Format/Info : Advanced Video Codec
      Format profile : Main@L3.0
      Format settings, CABAC : No
      Format settings, ReFrames : 2 frames
      Codec ID : avc1
      Codec ID/Info : Advanced Video Coding
      Duration : 2mn 22s
      Bit rate mode : Variable
      Bit rate : 2 608 Kbps
      Width : 852 pixels
      Height : 480 pixels
      Display aspect ratio : 16:9
      Frame rate mode : Constant
      Frame rate : 23.976 fps
      Resolution : 24 bits
      Colorimetry : 4:2:0
      Scan type : Progressive
      Bits/(Pixel*Frame) : 0.266
      Stream size : 44.4 MiB (94%)
      Encoded date : UTC 2010-05-04 21:28:07
      Tagged date : UTC 2010-05-04 22:55:33
      colour_primaries : BT.709-5, BT.1361, IEC 61966-2-4, SMPTE RP177
      transfer_characteristics : BT.709-5, BT.1361
      matrix_coefficients : BT.709-5, BT.1361, IEC 61966-2-4 709, SMPTE RP177
   Audio #1
      ID : 1
      Format : AAC
      Format/Info : Advanced Audio Codec
      Format version : Version 4
      Format profile : LC
      Format settings, SBR : No
      Codec ID : 40
      Duration : 2mn 22s
      Bit rate mode : Constant
      Bit rate : 149 Kbps
      Nominal bit rate : 192 Kbps
      Channel(s) : 2 channels
      Channel positions : L R
      Sampling rate : 48.0 KHz
      Resolution : 16 bits
      Stream size : 2.54 MiB (5%)
      Encoded date : UTC 2010-05-04 21:28:07
      Tagged date : UTC 2010-05-04 22:55:33"
,punjabi420,2010-05-23T23:10Z,"I'm Seeding This Movie Upton 182 seeds and Speeds up to 220.3kB/s...Download This Movie In Minutes...Depend on Ur Internet Speed.
Thanks 

CLick on this Link here


http://thepiratebay.org/torrent/5583283/Kites_2010_Hrithik__amp__Barbara_%28FULL_MOVIE%29_EXCLUSIVE_RELEASE"
